<mxfile host="app.diagrams.net" modified="2022-06-06T06:17:49.114Z" agent="5.0 (Macintosh; Intel Mac OS X 10_15_6) AppleWebKit/605.1.15 (KHTML, like Gecko) Version/14.0.3 Safari/605.1.15" etag="Me_N383XrSE8npuuqaMT" version="19.0.0" type="github">
  <diagram id="ry2eGD-B7p6VM2SUymd2" name="Page-1">
    <mxGraphModel dx="1351" dy="884" grid="1" gridSize="10" guides="1" tooltips="1" connect="1" arrows="1" fold="1" page="1" pageScale="1" pageWidth="1169" pageHeight="827" math="0" shadow="0">
      <root>
        <mxCell id="0" />
        <mxCell id="1" parent="0" />
        <mxCell id="3VDskiyk_FJ-31ZSeJP5-1" value="&lt;font style=&quot;font-size: 18px;&quot;&gt;layer normalization&lt;/font&gt;" style="rounded=0;whiteSpace=wrap;html=1;fillColor=#D5E8D4;" vertex="1" parent="1">
          <mxGeometry x="265" y="570" width="120" height="40" as="geometry" />
        </mxCell>
        <mxCell id="3VDskiyk_FJ-31ZSeJP5-2" value="" style="endArrow=classic;html=1;rounded=0;" edge="1" parent="1">
          <mxGeometry width="50" height="50" relative="1" as="geometry">
            <mxPoint x="325" y="570" as="sourcePoint" />
            <mxPoint x="325" y="540" as="targetPoint" />
          </mxGeometry>
        </mxCell>
        <mxCell id="3VDskiyk_FJ-31ZSeJP5-3" value="" style="endArrow=none;html=1;rounded=0;" edge="1" parent="1">
          <mxGeometry width="50" height="50" relative="1" as="geometry">
            <mxPoint x="325" y="660" as="sourcePoint" />
            <mxPoint x="325" y="610" as="targetPoint" />
          </mxGeometry>
        </mxCell>
        <mxCell id="3VDskiyk_FJ-31ZSeJP5-5" value="" style="endArrow=none;html=1;rounded=0;" edge="1" parent="1">
          <mxGeometry width="50" height="50" relative="1" as="geometry">
            <mxPoint x="423" y="630" as="sourcePoint" />
            <mxPoint x="424" y="390" as="targetPoint" />
          </mxGeometry>
        </mxCell>
        <mxCell id="3VDskiyk_FJ-31ZSeJP5-6" value="" style="ellipse;whiteSpace=wrap;html=1;aspect=fixed;fillColor=#FFFFFF;" vertex="1" parent="1">
          <mxGeometry x="310" y="380" width="30" height="30" as="geometry" />
        </mxCell>
        <mxCell id="3VDskiyk_FJ-31ZSeJP5-8" value="" style="endArrow=none;html=1;rounded=0;" edge="1" parent="1">
          <mxGeometry width="50" height="50" relative="1" as="geometry">
            <mxPoint x="325" y="630" as="sourcePoint" />
            <mxPoint x="425" y="630" as="targetPoint" />
          </mxGeometry>
        </mxCell>
        <mxCell id="3VDskiyk_FJ-31ZSeJP5-10" value="" style="shape=cross;whiteSpace=wrap;html=1;fillColor=#080808;" vertex="1" parent="1">
          <mxGeometry x="315" y="385" width="20" height="20" as="geometry" />
        </mxCell>
        <mxCell id="3VDskiyk_FJ-31ZSeJP5-12" value="" style="endArrow=none;html=1;rounded=0;exitX=0.5;exitY=0;exitDx=0;exitDy=0;" edge="1" parent="1" source="3VDskiyk_FJ-31ZSeJP5-16">
          <mxGeometry width="50" height="50" relative="1" as="geometry">
            <mxPoint x="335" y="440.0000000000001" as="sourcePoint" />
            <mxPoint x="325" y="410" as="targetPoint" />
          </mxGeometry>
        </mxCell>
        <mxCell id="3VDskiyk_FJ-31ZSeJP5-13" value="" style="endArrow=classic;html=1;rounded=0;" edge="1" parent="1">
          <mxGeometry width="50" height="50" relative="1" as="geometry">
            <mxPoint x="424" y="390.66" as="sourcePoint" />
            <mxPoint x="344" y="390.66" as="targetPoint" />
          </mxGeometry>
        </mxCell>
        <mxCell id="3VDskiyk_FJ-31ZSeJP5-14" value="&lt;font style=&quot;font-size: 18px;&quot;&gt;layer normalization&lt;/font&gt;" style="rounded=0;whiteSpace=wrap;html=1;fillColor=#D5E8D4;" vertex="1" parent="1">
          <mxGeometry x="265" y="310" width="120" height="40" as="geometry" />
        </mxCell>
        <mxCell id="3VDskiyk_FJ-31ZSeJP5-15" value="" style="endArrow=classic;html=1;rounded=0;" edge="1" parent="1">
          <mxGeometry width="50" height="50" relative="1" as="geometry">
            <mxPoint x="325" y="310" as="sourcePoint" />
            <mxPoint x="325" y="280" as="targetPoint" />
          </mxGeometry>
        </mxCell>
        <mxCell id="3VDskiyk_FJ-31ZSeJP5-16" value="&lt;font style=&quot;font-size: 18px;&quot;&gt;Multi-Head attention block&lt;/font&gt;" style="whiteSpace=wrap;html=1;aspect=fixed;fillColor=#CCE5FF;" vertex="1" parent="1">
          <mxGeometry x="275" y="440" width="100" height="100" as="geometry" />
        </mxCell>
        <mxCell id="3VDskiyk_FJ-31ZSeJP5-17" value="&lt;font style=&quot;font-size: 18px;&quot;&gt;MLP&lt;/font&gt;" style="whiteSpace=wrap;html=1;aspect=fixed;fillColor=#CCE5FF;" vertex="1" parent="1">
          <mxGeometry x="275" y="180" width="100" height="100" as="geometry" />
        </mxCell>
        <mxCell id="3VDskiyk_FJ-31ZSeJP5-18" value="" style="endArrow=none;html=1;rounded=0;" edge="1" parent="1" source="3VDskiyk_FJ-31ZSeJP5-6">
          <mxGeometry width="50" height="50" relative="1" as="geometry">
            <mxPoint x="275" y="400" as="sourcePoint" />
            <mxPoint x="325" y="350" as="targetPoint" />
          </mxGeometry>
        </mxCell>
        <mxCell id="3VDskiyk_FJ-31ZSeJP5-20" value="" style="endArrow=none;html=1;rounded=0;" edge="1" parent="1">
          <mxGeometry width="50" height="50" relative="1" as="geometry">
            <mxPoint x="424" y="390" as="sourcePoint" />
            <mxPoint x="425" y="150" as="targetPoint" />
          </mxGeometry>
        </mxCell>
        <mxCell id="3VDskiyk_FJ-31ZSeJP5-21" value="" style="endArrow=classic;html=1;rounded=0;" edge="1" parent="1">
          <mxGeometry width="50" height="50" relative="1" as="geometry">
            <mxPoint x="325" y="132" as="sourcePoint" />
            <mxPoint x="325" y="100" as="targetPoint" />
          </mxGeometry>
        </mxCell>
        <mxCell id="3VDskiyk_FJ-31ZSeJP5-22" value="" style="endArrow=classic;html=1;rounded=0;" edge="1" parent="1">
          <mxGeometry width="50" height="50" relative="1" as="geometry">
            <mxPoint x="425" y="150" as="sourcePoint" />
            <mxPoint x="345" y="150" as="targetPoint" />
          </mxGeometry>
        </mxCell>
        <mxCell id="3VDskiyk_FJ-31ZSeJP5-23" value="" style="ellipse;whiteSpace=wrap;html=1;aspect=fixed;fillColor=#FFFFFF;" vertex="1" parent="1">
          <mxGeometry x="310" y="132" width="30" height="30" as="geometry" />
        </mxCell>
        <mxCell id="3VDskiyk_FJ-31ZSeJP5-24" value="" style="shape=cross;whiteSpace=wrap;html=1;fillColor=#080808;" vertex="1" parent="1">
          <mxGeometry x="315" y="137" width="20" height="20" as="geometry" />
        </mxCell>
        <mxCell id="3VDskiyk_FJ-31ZSeJP5-25" value="" style="endArrow=none;html=1;rounded=0;entryX=0.347;entryY=1.08;entryDx=0;entryDy=0;entryPerimeter=0;" edge="1" parent="1">
          <mxGeometry width="50" height="50" relative="1" as="geometry">
            <mxPoint x="325" y="180" as="sourcePoint" />
            <mxPoint x="325.4100000000001" y="162.39999999999998" as="targetPoint" />
          </mxGeometry>
        </mxCell>
        <mxCell id="3VDskiyk_FJ-31ZSeJP5-26" value="&lt;font style=&quot;font-size: 18px;&quot;&gt;x&lt;/font&gt;" style="text;html=1;align=center;verticalAlign=middle;resizable=0;points=[];autosize=1;strokeColor=none;fillColor=none;" vertex="1" parent="1">
          <mxGeometry x="335" y="650" width="20" height="20" as="geometry" />
        </mxCell>
        <mxCell id="3VDskiyk_FJ-31ZSeJP5-27" value="&lt;font style=&quot;font-size: 18px;&quot;&gt;y&lt;/font&gt;" style="text;html=1;align=center;verticalAlign=middle;resizable=0;points=[];autosize=1;strokeColor=none;fillColor=none;" vertex="1" parent="1">
          <mxGeometry x="347" y="100" width="20" height="20" as="geometry" />
        </mxCell>
        <mxCell id="3VDskiyk_FJ-31ZSeJP5-29" value="&lt;font style=&quot;font-size: 24px;&quot;&gt;Standard transformer decoder layer structure&lt;/font&gt;" style="text;html=1;align=center;verticalAlign=middle;resizable=0;points=[];autosize=1;strokeColor=none;fillColor=none;" vertex="1" parent="1">
          <mxGeometry x="39" y="691" width="490" height="20" as="geometry" />
        </mxCell>
        <mxCell id="3VDskiyk_FJ-31ZSeJP5-45" value="" style="endArrow=classic;html=1;rounded=0;" edge="1" parent="1">
          <mxGeometry width="50" height="50" relative="1" as="geometry">
            <mxPoint x="827" y="233" as="sourcePoint" />
            <mxPoint x="827" y="201" as="targetPoint" />
          </mxGeometry>
        </mxCell>
        <mxCell id="3VDskiyk_FJ-31ZSeJP5-47" value="" style="ellipse;whiteSpace=wrap;html=1;aspect=fixed;fillColor=#FFFFFF;" vertex="1" parent="1">
          <mxGeometry x="812" y="233" width="30" height="30" as="geometry" />
        </mxCell>
        <mxCell id="3VDskiyk_FJ-31ZSeJP5-48" value="" style="shape=cross;whiteSpace=wrap;html=1;fillColor=#080808;" vertex="1" parent="1">
          <mxGeometry x="817" y="238" width="20" height="20" as="geometry" />
        </mxCell>
        <mxCell id="3VDskiyk_FJ-31ZSeJP5-50" value="&lt;font style=&quot;font-size: 18px;&quot;&gt;x&lt;/font&gt;" style="text;html=1;align=center;verticalAlign=middle;resizable=0;points=[];autosize=1;strokeColor=none;fillColor=none;" vertex="1" parent="1">
          <mxGeometry x="837" y="560" width="20" height="20" as="geometry" />
        </mxCell>
        <mxCell id="3VDskiyk_FJ-31ZSeJP5-51" value="&lt;font style=&quot;font-size: 18px;&quot;&gt;y&lt;/font&gt;" style="text;html=1;align=center;verticalAlign=middle;resizable=0;points=[];autosize=1;strokeColor=none;fillColor=none;" vertex="1" parent="1">
          <mxGeometry x="849" y="201" width="20" height="20" as="geometry" />
        </mxCell>
        <mxCell id="3VDskiyk_FJ-31ZSeJP5-52" value="&lt;font style=&quot;font-size: 18px;&quot;&gt;layer normalization&lt;/font&gt;" style="rounded=0;whiteSpace=wrap;html=1;fillColor=#D5E8D4;" vertex="1" parent="1">
          <mxGeometry x="859" y="437.6" width="120" height="40" as="geometry" />
        </mxCell>
        <mxCell id="3VDskiyk_FJ-31ZSeJP5-53" value="" style="endArrow=classic;html=1;rounded=0;" edge="1" parent="1">
          <mxGeometry width="50" height="50" relative="1" as="geometry">
            <mxPoint x="919" y="437.6" as="sourcePoint" />
            <mxPoint x="919" y="407.6" as="targetPoint" />
          </mxGeometry>
        </mxCell>
        <mxCell id="3VDskiyk_FJ-31ZSeJP5-55" value="&lt;font style=&quot;font-size: 18px;&quot;&gt;Multi-Query attention block&lt;/font&gt;" style="whiteSpace=wrap;html=1;aspect=fixed;fillColor=#CCE5FF;" vertex="1" parent="1">
          <mxGeometry x="869" y="307.6" width="100" height="100" as="geometry" />
        </mxCell>
        <mxCell id="3VDskiyk_FJ-31ZSeJP5-56" value="&lt;font style=&quot;font-size: 18px;&quot;&gt;layer normalization&lt;/font&gt;" style="rounded=0;whiteSpace=wrap;html=1;fillColor=#D5E8D4;" vertex="1" parent="1">
          <mxGeometry x="677" y="437.6" width="120" height="40" as="geometry" />
        </mxCell>
        <mxCell id="3VDskiyk_FJ-31ZSeJP5-57" value="" style="endArrow=classic;html=1;rounded=0;" edge="1" parent="1">
          <mxGeometry width="50" height="50" relative="1" as="geometry">
            <mxPoint x="737" y="437.6" as="sourcePoint" />
            <mxPoint x="737" y="407.6" as="targetPoint" />
          </mxGeometry>
        </mxCell>
        <mxCell id="3VDskiyk_FJ-31ZSeJP5-58" value="&lt;font style=&quot;font-size: 18px;&quot;&gt;MLP&lt;/font&gt;" style="whiteSpace=wrap;html=1;aspect=fixed;fillColor=#CCE5FF;" vertex="1" parent="1">
          <mxGeometry x="687" y="307.6" width="100" height="100" as="geometry" />
        </mxCell>
        <mxCell id="3VDskiyk_FJ-31ZSeJP5-59" value="" style="endArrow=none;html=1;rounded=0;" edge="1" parent="1">
          <mxGeometry width="50" height="50" relative="1" as="geometry">
            <mxPoint x="737" y="510" as="sourcePoint" />
            <mxPoint x="737" y="477.6" as="targetPoint" />
          </mxGeometry>
        </mxCell>
        <mxCell id="3VDskiyk_FJ-31ZSeJP5-61" value="" style="endArrow=none;html=1;rounded=0;" edge="1" parent="1">
          <mxGeometry width="50" height="50" relative="1" as="geometry">
            <mxPoint x="737" y="509" as="sourcePoint" />
            <mxPoint x="919" y="509" as="targetPoint" />
          </mxGeometry>
        </mxCell>
        <mxCell id="3VDskiyk_FJ-31ZSeJP5-62" value="" style="endArrow=none;html=1;rounded=0;" edge="1" parent="1">
          <mxGeometry width="50" height="50" relative="1" as="geometry">
            <mxPoint x="920" y="510" as="sourcePoint" />
            <mxPoint x="920" y="477.6" as="targetPoint" />
          </mxGeometry>
        </mxCell>
        <mxCell id="3VDskiyk_FJ-31ZSeJP5-63" value="" style="endArrow=classic;html=1;rounded=0;" edge="1" parent="1">
          <mxGeometry width="50" height="50" relative="1" as="geometry">
            <mxPoint x="827" y="570" as="sourcePoint" />
            <mxPoint x="827" y="510" as="targetPoint" />
          </mxGeometry>
        </mxCell>
        <mxCell id="3VDskiyk_FJ-31ZSeJP5-67" value="" style="endArrow=none;html=1;rounded=0;" edge="1" parent="1">
          <mxGeometry width="50" height="50" relative="1" as="geometry">
            <mxPoint x="736" y="307.6" as="sourcePoint" />
            <mxPoint x="736" y="250" as="targetPoint" />
          </mxGeometry>
        </mxCell>
        <mxCell id="3VDskiyk_FJ-31ZSeJP5-68" value="" style="endArrow=none;html=1;rounded=0;" edge="1" parent="1">
          <mxGeometry width="50" height="50" relative="1" as="geometry">
            <mxPoint x="918.76" y="307.6" as="sourcePoint" />
            <mxPoint x="918.76" y="250" as="targetPoint" />
          </mxGeometry>
        </mxCell>
        <mxCell id="3VDskiyk_FJ-31ZSeJP5-69" value="" style="endArrow=classic;html=1;rounded=0;" edge="1" parent="1">
          <mxGeometry width="50" height="50" relative="1" as="geometry">
            <mxPoint x="736" y="250" as="sourcePoint" />
            <mxPoint x="796" y="249" as="targetPoint" />
          </mxGeometry>
        </mxCell>
        <mxCell id="3VDskiyk_FJ-31ZSeJP5-70" value="" style="endArrow=classic;html=1;rounded=0;" edge="1" parent="1">
          <mxGeometry width="50" height="50" relative="1" as="geometry">
            <mxPoint x="919" y="249.5" as="sourcePoint" />
            <mxPoint x="859" y="250" as="targetPoint" />
          </mxGeometry>
        </mxCell>
        <mxCell id="3VDskiyk_FJ-31ZSeJP5-71" value="" style="endArrow=classic;html=1;rounded=0;" edge="1" parent="1">
          <mxGeometry width="50" height="50" relative="1" as="geometry">
            <mxPoint x="827" y="510" as="sourcePoint" />
            <mxPoint x="827" y="270" as="targetPoint" />
          </mxGeometry>
        </mxCell>
        <mxCell id="3VDskiyk_FJ-31ZSeJP5-72" value="&lt;font style=&quot;font-size: 24px;&quot;&gt;Architecture in this work adopted from GPT-J-6B&lt;/font&gt;" style="text;html=1;align=center;verticalAlign=middle;resizable=0;points=[];autosize=1;strokeColor=none;fillColor=none;" vertex="1" parent="1">
          <mxGeometry x="566" y="691" width="530" height="20" as="geometry" />
        </mxCell>
      </root>
    </mxGraphModel>
  </diagram>
</mxfile>
